# xmcd CD database file
#
# Track frame offsets:
#	150
#	22223
#	42786
#	62924
#	77536
#	94489
#	110584
#	124723
#	145819
#	171132
#	187724
#	207964
#	223039
#	234211
#
# Disc length: 3404 seconds
#
# Revision: 0
# Processed by: cddbd v1.5.2PL0 Copyright (c) Steve Scherf et al.
# Submitted via: CDex 1.51
#
DISCID=c00d4a0e
DTITLE=Sue Kibbey - true
DYEAR=2002
DGENRE=Jazz
TTITLE0=this masquerade
TTITLE1=true
TTITLE2=skylark
TTITLE3=cheek to cheek
TTITLE4=embraceable you
TTITLE5=teach me tonight
TTITLE6=you've changed
TTITLE7=come rain or come shine
TTITLE8=million dollar secret
TTITLE9=mean to me
TTITLE10=everything happens to me
TTITLE11=i gotta right to sing the blues
TTITLE12=paper moon
TTITLE13=round midnight
EXTD=YEAR: 2002
EXTT0=
EXTT1=
EXTT2=
EXTT3=
EXTT4=
EXTT5=
EXTT6=
EXTT7=
EXTT8=
EXTT9=
EXTT10=
EXTT11=
EXTT12=
EXTT13=
PLAYORDER=
